<?xml version="1.0" standalone="yes"?>
<svg xmlns="http://www.w3.org/2000/svg" width="500" height="500">
<path style="fill:#020202; stroke:none;" d="M0 0L0 500L500 500L500 0L0 0z"/>
<path style="fill:#616161; stroke:none;" d="M163 192L163 193L167 193L163 192M158.667 193.333L159.333 193.667L158.667 193.333z"/>
<path style="fill:#e93e36; stroke:none;" d="M144 208C146.779 205.761 148.975 202.642 152.015 200.743C156.782 197.765 161.969 200.508 162.732 206.001C164.106 215.883 160 228.624 160 239C164.189 236.916 167.786 233.873 172 231.821C179.277 228.277 199.831 230.518 191.987 242.907C187.106 250.615 175.526 251.934 169.468 259.04C155.259 275.706 167.535 289.805 187 285.321C194.329 283.632 199.126 277.925 206 276C199.026 265.059 197.398 240.241 217 240.21C221.85 240.202 226.043 243.618 230 246C239.062 228.734 236.63 199.851 212 201.04C203.576 201.447 195.33 211.242 188.213 210.833C184.067 210.595 180.658 200.261 177.674 197.532C166.672 187.471 148.385 195.005 144 208z"/>
<path style="fill:#616161; stroke:none;" d="M170.667 193.333L171.333 193.667L170.667 193.333M156 194L157 195L156 194M173 194L174 195L173 194M154 195L155 196L154 195M175 195L176 196L175 195M152 196L153 197L152 196M176 196L177 197L176 196M151 197L152 198L151 197M150 198L151 199L150 198M153 199L154 200L153 199M159 199L160 200L159 199M179 199L180 200L179 199M148 200L149 201L148 200M151 200L152 201L151 200M160 200L161 201L160 200M180 200L181 201L180 200M147 201L148 202L147 201M161 201L162 202L161 201M146 202L147 203L146 202M181 202L182 203L181 202M148 203L149 204L148 203M162 203L162 206L163 206L162 203M182 203L183 204L182 203M225 203L226 204L225 203M147 204L148 205L147 204M144 205L145 206L144 205M183 205L184 206L183 205M145 207L146 208L145 207M184 207L185 208L184 207M144 208L145 209L144 208M162 208L162 211L163 211L162 208M185 209L186 210L185 209M231 209L232 210L231 209M186 211L187 212L186 211M232.333 211.667L232.667 212.333L232.333 211.667M161.333 214.667L161.667 215.333L161.333 214.667M233.333 214.667L233.667 215.333L233.333 214.667M234 218L234 221L235 221L234 218M160.333 219.667L160.667 220.333L160.333 219.667M159 227L159 239L160 239L159 227M178 229L178 230L185 230L178 229M174 230L175 231L174 230M187 230L188 231L187 230M172 231L173 232L172 231M189 231L190 232L189 231M234 231L234 234L235 234L234 231M170 232L171 233L170 232M190 232L191 233L190 232M168 233L169 234L168 233M192 234L193 235L192 234M165 235L166 236L165 235M193 236L194 237L193 236M233.333 236.667L233.667 237.333L233.333 236.667M161 238L162 239L161 238M160 239L161 240L160 239M193 240L194 241L193 240M213 240L214 241L213 240M232 240L233 241L232 240M211 241L212 242L211 241M209 242L210 243L209 242z"/>
<path style="fill:#fafafa; stroke:none;" d="M240 242C238.579 248.097 244.529 248.082 244 242L240 242z"/>
<path style="fill:#a0a0a0; stroke:none;" d="M242 242L243 243L242 242z"/>
<path style="fill:#616161; stroke:none;" d="M226 243L227 244L226 243z"/>
<path style="fill:#a0a0a0; stroke:none;" d="M244 243L245 244L244 243z"/>
<path style="fill:#616161; stroke:none;" d="M191 244L192 245L191 244M190 245L191 246L190 245M215 245L216 246L215 245z"/>
<path style="fill:#a0a0a0; stroke:none;" d="M216.667 245.333L217.333 245.667L216.667 245.333z"/>
<path style="fill:#616161; stroke:none;" d="M218 245L219 246L218 245M230 245L231 246L230 245M213 246L214 247L213 246z"/>
<path style="fill:#fafafa; stroke:none;" d="M204 282C207.639 293.796 225.992 286.814 227.667 276.996C230.376 261.108 216.108 271.785 210.939 265.527C207.131 260.917 211.131 251.44 216.729 250.237C219.863 249.563 223.802 252.542 227 253C219.884 239.083 205.486 249.654 206.047 262C206.686 276.05 217.63 265.669 223.381 271.607C228.174 276.555 218.22 283.576 214 284.218C210.696 284.722 207.272 282.466 204 282z"/>
<path style="fill:#616161; stroke:none;" d="M220 246L221 247L220 246z"/>
<path style="fill:#a0a0a0; stroke:none;" d="M244 246L245 247L244 246z"/>
<path style="fill:#616161; stroke:none;" d="M187 247L188 248L187 247M222 247L223 248L222 247z"/>
<path style="fill:#a0a0a0; stroke:none;" d="M240 247L241 248L240 247M243 247L244 248L243 247z"/>
<path style="fill:#616161; stroke:none;" d="M346 249L349 248L346 249M185 248L186 249L185 248M210 248L211 249L210 248z"/>
<path style="fill:#a0a0a0; stroke:none;" d="M223 248L224 249L223 248z"/>
<path style="fill:#fafafa; stroke:none;" d="M347 248C344.902 256.81 345.306 266.13 343.255 275C342.601 277.829 340.763 282.717 343.603 284.972C349.37 289.551 363.287 284.9 370 285.035C371.91 285.074 377.745 285.847 377.079 282.245C376.558 279.432 371.938 280.067 370 280.286C365.051 280.845 351.741 284.967 347.643 281.227C345.628 279.388 346.8 275.343 347 273C347.715 264.636 349.931 256.39 350 248L347 248z"/>
<path style="fill:#616161; stroke:none;" d="M183 249L184 250L183 249z"/>
<path style="fill:#a0a0a0; stroke:none;" d="M217 249L218 250L217 249z"/>
<path style="fill:#616161; stroke:none;" d="M225 249L226 250L225 249M241.667 249.333L242.333 249.667L241.667 249.333z"/>
<path style="fill:#a0a0a0; stroke:none;" d="M346 249L347 250L346 249z"/>
<path style="fill:#616161; stroke:none;" d="M350 249L351 250L350 249M180 250L181 251L180 250M202 250L203 251L202 250z"/>
<path style="fill:#a0a0a0; stroke:none;" d="M209 250L210 251L209 250M214 250L215 251L214 250z"/>
<path style="fill:#616161; stroke:none;" d="M220 250L221 251L220 250M226 250L227 251L226 250z"/>
<path style="fill:#a0a0a0; stroke:none;" d="M240 250L241 251L240 250z"/>
<path style="fill:#fafafa; stroke:none;" d="M241 250C239.081 256.977 235.346 286.497 244 288L243 250L241 250z"/>
<path style="fill:#a0a0a0; stroke:none;" d="M243 250L244 251L243 250M350 250L351 251L350 250z"/>
<path style="fill:#616161; stroke:none;" d="M178 251L179 252L178 251M208 251L209 252L208 251z"/>
<path style="fill:#a0a0a0; stroke:none;" d="M213 251L214 252L213 251z"/>
<path style="fill:#616161; stroke:none;" d="M350.333 251.667L350.667 252.333L350.333 251.667M177 252L178 253L177 252M207 252L208 253L207 252z"/>
<path style="fill:#a0a0a0; stroke:none;" d="M212 252L213 253L212 252z"/>
<path style="fill:#616161; stroke:none;" d="M222 252L223 253L222 252M239 252L240 253L239 252M244 252L244 261L245 261L244 252M327 252L328 253L327 252z"/>
<path style="fill:#a0a0a0; stroke:none;" d="M328.667 252.333L329.333 252.667L328.667 252.333z"/>
<path style="fill:#616161; stroke:none;" d="M175 253L176 254L175 253M223 253L224 254L223 253z"/>
<path style="fill:#a0a0a0; stroke:none;" d="M224.667 253.333L225.333 253.667L224.667 253.333z"/>
<path style="fill:#616161; stroke:none;" d="M226 253L227 254L226 253M325 253L324 255L325 253z"/>
<path style="fill:#fafafa; stroke:none;" d="M326.474 254.046C322.833 256.567 327.302 261.188 330.642 258.954C334.299 256.507 329.742 251.784 326.474 254.046z"/>
<path style="fill:#616161; stroke:none;" d="M331 253L332 254L331 253M174 254L175 255L174 254M206 254L207 255L206 254M211 254L212 255L211 254M332 254L333 255L332 254M200 255L201 256L200 255z"/>
<path style="fill:#a0a0a0; stroke:none;" d="M206 255L207 256L206 255M210 255L211 256L210 255z"/>
<path style="fill:#616161; stroke:none;" d="M287 255L286 257L287 255z"/>
<path style="fill:#a0a0a0; stroke:none;" d="M288.667 255.333L289.333 255.667L288.667 255.333z"/>
<path style="fill:#616161; stroke:none;" d="M290 255L291 256L290 255M303 255L304 256L303 255z"/>
<path style="fill:#a0a0a0; stroke:none;" d="M304 255L305 256L304 255z"/>
<path style="fill:#fafafa; stroke:none;" d="M293 264C292.117 259.805 291.572 256.793 287 256C287.78 262.263 290.892 285.947 296 288C297.28 281.857 292.795 274.768 295.488 268.715C297.722 263.691 306.607 255.861 310.697 263.062C315.131 270.869 309.564 279.754 312 288L314 288C316.845 278.376 318.325 246.225 300.002 258.107C297.413 259.786 295.221 261.881 293 264z"/>
<path style="fill:#a0a0a0; stroke:none;" d="M308 255L309 256L308 255z"/>
<path style="fill:#616161; stroke:none;" d="M309 255L310 256L309 255z"/>
<path style="fill:#a0a0a0; stroke:none;" d="M324 255L325 256L324 255M332 255L333 256L332 255z"/>
<path style="fill:#616161; stroke:none;" d="M345.333 255.667L345.667 256.333L345.333 255.667z"/>
<path style="fill:#a0a0a0; stroke:none;" d="M349 255L350 256L349 255z"/>
<path style="fill:#616161; stroke:none;" d="M210 256L211 257L210 256z"/>
<path style="fill:#e93e36; stroke:none;" d="M217 256L215 261L222 260L217 256z"/>
<path style="fill:#a0a0a0; stroke:none;" d="M240 256L240 261L241 261L240 256M302 256L303 257L302 256z"/>
<path style="fill:#616161; stroke:none;" d="M311 256L312 257L311 256M349.333 256.667L349.667 257.333L349.333 256.667M205 257L205 264L206 264L205 257z"/>
<path style="fill:#a0a0a0; stroke:none;" d="M286 257L287 258L286 257M291 257L292 258L291 257z"/>
<path style="fill:#616161; stroke:none;" d="M300 257L301 258L300 257z"/>
<path style="fill:#a0a0a0; stroke:none;" d="M312 257L313 258L312 257M324 257L325 258L324 257M345 257L345 260L346 260L345 257M209 258L210 259L209 258z"/>
<path style="fill:#616161; stroke:none;" d="M215 258L216 259L215 258z"/>
<path style="fill:#a0a0a0; stroke:none;" d="M266 258L267 259L266 258z"/>
<path style="fill:#fafafa; stroke:none;" d="M275 278C274.237 283.189 273.402 291.595 270.262 295.876C265.664 302.141 260.71 296.636 261 291L256 291L255 296C271.303 316.773 281.158 283.25 278.331 270C277.231 264.844 274.428 258.144 268 258.608C261.088 259.107 252.183 270.539 258.319 276.567C263.052 281.217 269.446 278.673 275 278z"/>
<path style="fill:#a0a0a0; stroke:none;" d="M270 258L271 259L270 258z"/>
<path style="fill:#616161; stroke:none;" d="M286 258L287 259L286 258z"/>
<path style="fill:#a0a0a0; stroke:none;" d="M299 258L300 259L299 258z"/>
<path style="fill:#616161; stroke:none;" d="M313 258L314 259L313 258M324 258L325 259L324 258z"/>
<path style="fill:#a0a0a0; stroke:none;" d="M332 258L333 259L332 258z"/>
<path style="fill:#616161; stroke:none;" d="M209 259L209 262L210 262L209 259M222 259L223 260L222 259z"/>
<path style="fill:#a0a0a0; stroke:none;" d="M264 259L265 260L264 259M272 259L273 260L272 259z"/>
<path style="fill:#616161; stroke:none;" d="M273 259L274 260L273 259M292.333 259.667L292.667 260.333L292.333 259.667z"/>
<path style="fill:#a0a0a0; stroke:none;" d="M297 259L298 260L297 259M305.667 259.333L306.333 259.667L305.667 259.333z"/>
<path style="fill:#616161; stroke:none;" d="M307 259L308 260L307 259z"/>
<path style="fill:#a0a0a0; stroke:none;" d="M308 259L309 260L308 259z"/>
<path style="fill:#616161; stroke:none;" d="M314 259L315 260L314 259M325 259L326 260L325 259z"/>
<path style="fill:#a0a0a0; stroke:none;" d="M331 259L332 260L331 259z"/>
<path style="fill:#616161; stroke:none;" d="M168 260L169 261L168 260M262 260L263 261L262 260M274 260L275 261L274 260M287 260L288 261L287 260z"/>
<path style="fill:#a0a0a0; stroke:none;" d="M296 260L297 261L296 260z"/>
<path style="fill:#616161; stroke:none;" d="M303 260L304 261L303 260M309 260L310 261L309 260z"/>
<path style="fill:#a0a0a0; stroke:none;" d="M314 260L315 261L314 260z"/>
<path style="fill:#616161; stroke:none;" d="M327 260L328 261L327 260z"/>
<path style="fill:#a0a0a0; stroke:none;" d="M328.667 260.333L329.333 260.667L328.667 260.333z"/>
<path style="fill:#616161; stroke:none;" d="M330 260L331 261L330 260z"/>
<path style="fill:#a0a0a0; stroke:none;" d="M348.333 260.667L348.667 261.333L348.333 260.667z"/>
<path style="fill:#616161; stroke:none;" d="M167 261L168 262L167 261M215 261L216 262L215 261M261 261L262 262L261 261M275 261L276 262L275 261z"/>
<path style="fill:#a0a0a0; stroke:none;" d="M288 261L289 262L288 261M292 261L293 262L292 261M295 261L296 262L295 261M301 261L302 262L301 261M310 261L311 262L310 261M209 262L210 263L209 262z"/>
<path style="fill:#616161; stroke:none;" d="M260 262L261 263L260 262z"/>
<path style="fill:#a0a0a0; stroke:none;" d="M266.667 262.333L267.333 262.667L266.667 262.333z"/>
<path style="fill:#616161; stroke:none;" d="M268 262L269 263L268 262z"/>
<path style="fill:#a0a0a0; stroke:none;" d="M269 262L270 263L269 262z"/>
<path style="fill:#616161; stroke:none;" d="M288 262L289 263L288 262z"/>
<path style="fill:#a0a0a0; stroke:none;" d="M294 262L295 263L294 262M300 262L301 263L300 262z"/>
<path style="fill:#616161; stroke:none;" d="M315 262L316 263L315 262M348 262L348 265L349 265L348 262M259 263L260 264L259 263M265 263L266 264L265 263z"/>
<path style="fill:#020202; stroke:none;" d="M274 272C273.598 270.31 273.254 268.623 272.516 267.034C266.468 254.012 254.139 278.211 267.999 274.451C270.049 273.895 272.024 272.773 274 272z"/>
<path style="fill:#616161; stroke:none;" d="M276 263L277 264L276 263z"/>
<path style="fill:#a0a0a0; stroke:none;" d="M293 263L294 264L293 263M299 263L300 264L299 263M315.333 263.667L315.667 264.333L315.333 263.667z"/>
<path style="fill:#616161; stroke:none;" d="M344 263L344 266L345 266L344 263M165 264L166 265L165 264z"/>
<path style="fill:#a0a0a0; stroke:none;" d="M243 264L243 267L244 267L243 264z"/>
<path style="fill:#616161; stroke:none;" d="M258 264L259 265L258 264z"/>
<path style="fill:#a0a0a0; stroke:none;" d="M263 264L264 265L263 264z"/>
<path style="fill:#616161; stroke:none;" d="M271 264L272 265L271 264z"/>
<path style="fill:#a0a0a0; stroke:none;" d="M289 264L290 265L289 264z"/>
<path style="fill:#616161; stroke:none;" d="M298 264L299 265L298 264M311.333 264.667L311.667 265.333L311.333 264.667M210 265L211 266L210 265M239 265L239 269L240 269L239 265M277 265L278 266L277 265M289 265L290 266L289 265z"/>
<path style="fill:#a0a0a0; stroke:none;" d="M206 266L207 267L206 266M210 266L211 267L210 266z"/>
<path style="fill:#616161; stroke:none;" d="M218 266L219 267L218 266z"/>
<path style="fill:#a0a0a0; stroke:none;" d="M219 266L220 267L219 266M224 266L225 267L224 266M257 266L258 267L257 266z"/>
<path style="fill:#616161; stroke:none;" d="M272 266L273 267L272 266z"/>
<path style="fill:#a0a0a0; stroke:none;" d="M277 266L278 267L277 266z"/>
<path style="fill:#616161; stroke:none;" d="M296 266L297 267L296 266z"/>
<path style="fill:#a0a0a0; stroke:none;" d="M344.333 266.667L344.667 267.333L344.333 266.667z"/>
<path style="fill:#616161; stroke:none;" d="M206 267L207 268L206 267z"/>
<path style="fill:#a0a0a0; stroke:none;" d="M212 267L212 268L215 268L212 267z"/>
<path style="fill:#616161; stroke:none;" d="M243.333 267.667L243.667 268.333L243.333 267.667M261 267L262 268L261 267z"/>
<path style="fill:#a0a0a0; stroke:none;" d="M295 267L296 268L295 267M207 268L208 269L207 268z"/>
<path style="fill:#616161; stroke:none;" d="M256 268L257 269L256 268z"/>
<path style="fill:#a0a0a0; stroke:none;" d="M273 268L274 269L273 268M290 268L291 269L290 268M312 268L312 273L313 273L312 268z"/>
<path style="fill:#616161; stroke:none;" d="M316 268L316 274L317 274L316 268z"/>
<path style="fill:#a0a0a0; stroke:none;" d="M347.333 268.667L347.667 269.333L347.333 268.667z"/>
<path style="fill:#616161; stroke:none;" d="M163 269L164 270L163 269M227 269L228 270L227 269z"/>
<path style="fill:#a0a0a0; stroke:none;" d="M239 269L239 272L240 272L239 269M256 269L257 270L256 269z"/>
<path style="fill:#616161; stroke:none;" d="M273 269L274 270L273 269M278 269L279 270L278 269M290.333 269.667L290.667 270.333L290.333 269.667z"/>
<path style="fill:#a0a0a0; stroke:none;" d="M209 270L210 271L209 270M217.667 270.333L218.333 270.667L217.667 270.333z"/>
<path style="fill:#616161; stroke:none;" d="M219 270L220 271L219 270M223 270L224 271L223 270z"/>
<path style="fill:#a0a0a0; stroke:none;" d="M227 270L228 271L227 270M260.333 270.667L260.667 271.333L260.333 270.667M278 270L279 271L278 270M294 270L295 271L294 270z"/>
<path style="fill:#616161; stroke:none;" d="M347 270L347 273L348 273L347 270M202 271L203 272L202 271M210.667 271.333L211.333 271.667L210.667 271.333z"/>
<path style="fill:#a0a0a0; stroke:none;" d="M212 271L213 272L212 271z"/>
<path style="fill:#616161; stroke:none;" d="M213.667 271.333L214.333 271.667L213.667 271.333z"/>
<path style="fill:#a0a0a0; stroke:none;" d="M224.333 271.667L224.667 272.333L224.333 271.667z"/>
<path style="fill:#616161; stroke:none;" d="M343.333 271.667L343.667 272.333L343.333 271.667z"/>
<path style="fill:#a0a0a0; stroke:none;" d="M271 272L272 273L271 272M273 272L274 273L273 272z"/>
<path style="fill:#616161; stroke:none;" d="M162 273L162 277L163 277L162 273M224 273L224 276L225 276L224 273M228 273L228 276L229 276L228 273M261 273L262 274L261 273z"/>
<path style="fill:#a0a0a0; stroke:none;" d="M270 273L271 274L270 273z"/>
<path style="fill:#616161; stroke:none;" d="M279.333 273.667L279.667 274.333L279.333 273.667z"/>
<path style="fill:#a0a0a0; stroke:none;" d="M291 273L292 274L291 273M343.333 273.667L343.667 274.333L343.333 273.667z"/>
<path style="fill:#616161; stroke:none;" d="M269 274L270 275L269 274M291 274L291 286L292 286L291 274M295 274L295 278L296 278L295 274M327 274L328 275L327 274z"/>
<path style="fill:#a0a0a0; stroke:none;" d="M328.667 274.333L329.333 274.667L328.667 274.333z"/>
<path style="fill:#616161; stroke:none;" d="M330 274L331 275L330 274z"/>
<path style="fill:#a0a0a0; stroke:none;" d="M256 275L257 276L256 275M263 275L264 276L263 275z"/>
<path style="fill:#616161; stroke:none;" d="M264 275L264 276L268 276L264 275z"/>
<path style="fill:#a0a0a0; stroke:none;" d="M268 275L269 276L268 275z"/>
<path style="fill:#616161; stroke:none;" d="M325 275L326 276L325 275z"/>
<path style="fill:#fafafa; stroke:none;" d="M332 275C318.891 275.43 332.866 286.28 332 275z"/>
<path style="fill:#616161; stroke:none;" d="M202 276L203 277L202 276z"/>
<path style="fill:#a0a0a0; stroke:none;" d="M224 276L225 277L224 276M257 276L258 277L257 276z"/>
<path style="fill:#616161; stroke:none;" d="M311 276L312 277L311 276z"/>
<path style="fill:#a0a0a0; stroke:none;" d="M315.333 276.667L315.667 277.333L315.333 276.667M332.333 276.667L332.667 277.333L332.333 276.667z"/>
<path style="fill:#616161; stroke:none;" d="M342 276L343 277L342 276M258 277L259 278L258 277z"/>
<path style="fill:#a0a0a0; stroke:none;" d="M311 277L312 278L311 277z"/>
<path style="fill:#616161; stroke:none;" d="M324.333 277.667L324.667 278.333L324.333 277.667z"/>
<path style="fill:#a0a0a0; stroke:none;" d="M342 277L343 278L342 277M346 277L346 280L347 280L346 277z"/>
<path style="fill:#616161; stroke:none;" d="M223 278L224 279L223 278z"/>
<path style="fill:#a0a0a0; stroke:none;" d="M227 278L228 279L227 278M260 278L261 279L260 278z"/>
<path style="fill:#616161; stroke:none;" d="M274.333 278.667L274.667 279.333L274.333 278.667z"/>
<path style="fill:#a0a0a0; stroke:none;" d="M295 278L295 281L296 281L295 278z"/>
<path style="fill:#616161; stroke:none;" d="M315 278L316 279L315 278M227 279L228 280L227 279M263.667 279.333L264.333 279.667L263.667 279.333z"/>
<path style="fill:#a0a0a0; stroke:none;" d="M265 279L266 280L265 279M278 279L279 280L278 279M332 279L333 280L332 279z"/>
<path style="fill:#616161; stroke:none;" d="M341.333 279.667L341.667 280.333L341.333 279.667M374.667 279.333L375.333 279.667L374.667 279.333M198 280L199 281L198 280M267 280L268 281L267 280z"/>
<path style="fill:#a0a0a0; stroke:none;" d="M274.333 280.667L274.667 281.333L274.333 280.667z"/>
<path style="fill:#616161; stroke:none;" d="M278.333 280.667L278.667 281.333L278.333 280.667M310 280L310 287L311 287L310 280M325 280L326 281L325 280M346.333 280.667L346.667 281.333L346.333 280.667M364.667 280.333L365.333 280.667L364.667 280.333z"/>
<path style="fill:#a0a0a0; stroke:none;" d="M366 280L366 281L369 281L366 280z"/>
<path style="fill:#616161; stroke:none;" d="M164 281L165 282L164 281M205 281L206 282L205 281z"/>
<path style="fill:#a0a0a0; stroke:none;" d="M206 281L207 282L206 281z"/>
<path style="fill:#616161; stroke:none;" d="M220 281L221 282L220 281z"/>
<path style="fill:#a0a0a0; stroke:none;" d="M226 281L227 282L226 281M327 281L327 282L330 282L327 281z"/>
<path style="fill:#616161; stroke:none;" d="M330 281L331 282L330 281z"/>
<path style="fill:#a0a0a0; stroke:none;" d="M341 281L341 284L342 284L341 281z"/>
<path style="fill:#616161; stroke:none;" d="M356 281L356 282L360 282L356 281z"/>
<path style="fill:#a0a0a0; stroke:none;" d="M360.667 281.333L361.333 281.667L360.667 281.333z"/>
<path style="fill:#616161; stroke:none;" d="M218 282L219 283L218 282M243 282L244 283L243 282M296 282L297 283L296 282z"/>
<path style="fill:#a0a0a0; stroke:none;" d="M347 282L347 283L350 283L347 282z"/>
<path style="fill:#616161; stroke:none;" d="M166 283L167 284L166 283M192 283L193 284L192 283M203.333 283.667L203.667 284.333L203.333 283.667M216 283L217 284L216 283z"/>
<path style="fill:#a0a0a0; stroke:none;" d="M224 283L225 284L224 283z"/>
<path style="fill:#616161; stroke:none;" d="M273 283L274 284L273 283z"/>
<path style="fill:#a0a0a0; stroke:none;" d="M277 283L278 284L277 283M296 283L297 284L296 283z"/>
<path style="fill:#616161; stroke:none;" d="M190 284L191 285L190 284M210 284L211 285L210 284z"/>
<path style="fill:#a0a0a0; stroke:none;" d="M211 284L211 285L215 285L211 284M222 284L223 285L222 284z"/>
<path style="fill:#616161; stroke:none;" d="M244 284L245 285L244 284z"/>
<path style="fill:#a0a0a0; stroke:none;" d="M273 284L274 285L273 284z"/>
<path style="fill:#616161; stroke:none;" d="M277 284L278 285L277 284M315 284L315 287L316 287L315 284M341 284L342 285L341 284z"/>
<path style="fill:#a0a0a0; stroke:none;" d="M377 284L378 285L377 284z"/>
<path style="fill:#616161; stroke:none;" d="M170 285L171 286L170 285M186 285L187 286L186 285z"/>
<path style="fill:#a0a0a0; stroke:none;" d="M204 285L205 286L204 285M221 285L222 286L221 285M244 285L245 286L244 285M342 285L343 286L342 285M362.667 285.333L363.333 285.667L362.667 285.333z"/>
<path style="fill:#616161; stroke:none;" d="M364 285L365 286L364 285M373 285L374 286L373 285z"/>
<path style="fill:#a0a0a0; stroke:none;" d="M374 285L375 286L374 285M376 285L377 286L376 285z"/>
<path style="fill:#616161; stroke:none;" d="M174 286L174 287L178 287L174 286M179 286L179 287L183 287L179 286z"/>
<path style="fill:#a0a0a0; stroke:none;" d="M206 286L207 287L206 286M219 286L220 287L219 286z"/>
<path style="fill:#616161; stroke:none;" d="M220 286L221 287L220 286z"/>
<path style="fill:#a0a0a0; stroke:none;" d="M239 286L240 287L239 286z"/>
<path style="fill:#616161; stroke:none;" d="M244 286L245 287L244 286M343 286L343 287L346 287L343 286z"/>
<path style="fill:#a0a0a0; stroke:none;" d="M346 286L346 287L355 287L346 286M356.667 286.333L357.333 286.667L356.667 286.333z"/>
<path style="fill:#616161; stroke:none;" d="M358.667 286.333L359.333 286.667L358.667 286.333z"/>
<path style="fill:#a0a0a0; stroke:none;" d="M217 287L218 288L217 287z"/>
<path style="fill:#616161; stroke:none;" d="M272.333 287.667L272.667 288.333L272.333 287.667z"/>
<path style="fill:#a0a0a0; stroke:none;" d="M276.333 287.667L276.667 288.333L276.333 287.667M293 287L294 288L293 287z"/>
<path style="fill:#616161; stroke:none;" d="M296 287L297 288L296 287z"/>
<path style="fill:#a0a0a0; stroke:none;" d="M311 287L312 288L311 287z"/>
<path style="fill:#616161; stroke:none;" d="M314 287L315 288L314 287M209 288L210 289L209 288z"/>
<path style="fill:#a0a0a0; stroke:none;" d="M210 288L211 289L210 288M212 288L213 289L212 288z"/>
<path style="fill:#616161; stroke:none;" d="M213 288L213 289L216 289L213 288M241.667 288.333L242.333 288.667L241.667 288.333z"/>
<path style="fill:#a0a0a0; stroke:none;" d="M272 289L273 290L272 289z"/>
<path style="fill:#616161; stroke:none;" d="M276 289L276 293L277 293L276 289z"/>
<path style="fill:#a0a0a0; stroke:none;" d="M257 290L258 291L257 290M259.667 290.333L260.333 290.667L259.667 290.333M261.333 291.667L261.667 292.333L261.333 291.667z"/>
<path style="fill:#616161; stroke:none;" d="M271 291L271 294L272 294L271 291z"/>
<path style="fill:#a0a0a0; stroke:none;" d="M256.333 293.667L256.667 294.333L256.333 293.667z"/>
<path style="fill:#616161; stroke:none;" d="M261 293L262 294L261 293z"/>
<path style="fill:#a0a0a0; stroke:none;" d="M260 294L261 295L260 294M271 294L272 295L271 294M255 295L256 296L255 295z"/>
<path style="fill:#616161; stroke:none;" d="M260 295L261 296L260 295z"/>
<path style="fill:#a0a0a0; stroke:none;" d="M275 295L276 296L275 295M260 296L261 297L260 296M270 296L271 297L270 296z"/>
<path style="fill:#616161; stroke:none;" d="M275 296L276 297L275 296z"/>
<path style="fill:#a0a0a0; stroke:none;" d="M255 297L256 298L255 297M261 297L262 298L261 297z"/>
<path style="fill:#616161; stroke:none;" d="M269 297L270 298L269 297z"/>
<path style="fill:#a0a0a0; stroke:none;" d="M256 298L257 299L256 298M263 298L264 299L263 298M268 298L269 299L268 298M273 298L274 299L273 298z"/>
<path style="fill:#616161; stroke:none;" d="M257 299L258 300L257 299z"/>
<path style="fill:#a0a0a0; stroke:none;" d="M265 299L266 300L265 299z"/>
<path style="fill:#616161; stroke:none;" d="M266 299L267 300L266 299z"/>
<path style="fill:#a0a0a0; stroke:none;" d="M272 299L273 300L272 299M259 300L260 301L259 300M261 301L262 302L261 301M270 301L271 302L270 301z"/>
<path style="fill:#616161; stroke:none;" d="M262 302L263 303L262 302z"/>
<path style="fill:#a0a0a0; stroke:none;" d="M263 302L264 303L263 302z"/>
<path style="fill:#616161; stroke:none;" d="M269 302L270 303L269 302M264 303L265 304L264 303z"/>
<path style="fill:#a0a0a0; stroke:none;" d="M265.667 303.333L266.333 303.667L265.667 303.333z"/>
<path style="fill:#616161; stroke:none;" d="M267 303L268 304L267 303z"/>
</svg>
